<svg width="380" height="380" xmlns="http://www.w3.org/2000/svg" xmlns:xlink="http://www.w3.org/1999/xlink" overflow="hidden"><defs><clipPath id="clip0"><rect x="450" y="170" width="380" height="380"/></clipPath></defs><g clip-path="url(#clip0)" transform="translate(-450 -170)"><path d="M451 360C451 255.618 535.618 171 640 171 744.382 171 829 255.618 829 360 829 464.382 744.382 549 640 549 535.618 549 451 464.382 451 360Z" fill="#0D0D0D" fill-rule="evenodd"/><path d="M470 360C470 266.112 546.112 190 640 190 733.888 190 810 266.112 810 360 810 453.888 733.888 530 640 530 546.112 530 470 453.888 470 360Z" fill="#FFFFFF" fill-rule="evenodd"/><path d="M631.5 360.5C631.5 355.53 635.529 351.5 640.5 351.5 645.471 351.5 649.5 355.53 649.5 360.5 649.5 365.471 645.471 369.5 640.5 369.5 635.529 369.5 631.5 365.471 631.5 360.5Z" stroke="#000000" stroke-width="1.33333" stroke-miterlimit="8" fill-rule="evenodd"/><path d="M0 0 92.652 92.652" stroke="#000000" stroke-width="3" stroke-miterlimit="8" fill="none" fill-rule="evenodd" transform="matrix(-1 0 0 1 740.152 261.5)"/><path d="M579 299 633.522 353.522" stroke="#000000" stroke-width="4" stroke-miterlimit="8" fill="none" fill-rule="evenodd"/></g></svg>